<svg width="58" height="58" viewBox="0 0 58 58" fill="none" xmlns="http://www.w3.org/2000/svg">
<g clip-path="url(#clip0_92_467)">
<path d="M58 58H0V0H58V58ZM1.65639 56.3436H56.3436V1.65639H1.65639V56.3436Z" fill="#000"/>
<path d="M8.15137 32.3161H11.6447V38.4182H16.8623V32.3161H20.3556V47.4091H16.8623V41.4146H11.6447V47.4091H8.15137V32.3161Z" fill="#000"/>
<path d="M23.459 42.2991V32.3161H26.9308V42.0838C26.9308 43.8081 27.966 44.7787 29.5396 44.7787C31.1131 44.7787 32.1484 43.8081 32.1484 42.0838V32.3161H35.6417V42.2991C35.6417 45.814 33.2482 47.7967 29.5396 47.7967C25.8309 47.7967 23.459 45.8123 23.459 42.2991Z" fill="#000"/>
<path d="M50.0462 43.2267C50.0462 45.814 48.2142 47.4091 45.2162 47.4091H38.7695V32.3161H44.9793C47.9757 32.3161 49.8309 33.8035 49.8309 36.2401C49.8309 38.2029 48.688 39.3673 46.9421 39.6903C48.688 39.8626 50.0462 41.1347 50.0462 43.2267ZM42.2628 34.8388V38.5044H44.2041C45.5408 38.5044 46.3392 37.8153 46.3392 36.6724C46.3392 35.5295 45.5624 34.8388 44.2041 34.8388H42.2628ZM46.5314 42.7729C46.5314 41.6515 45.6899 40.9194 44.4393 40.9194H42.2612V44.7572H44.4393C45.733 44.7572 46.5314 44.0234 46.5314 42.7729Z" fill="#000"/>
<path d="M10.1523 23.0089H8.15137V29.7437H10.1523V23.0089Z" fill="#000"/>
<path d="M12.2021 23.0089H14.7414L16.1742 27.4049L17.5987 23.0089H20.0799V29.7437H18.1569V25.4719L16.9245 29.7437H15.4437L14.1252 25.452V29.7437H12.2021V23.0089Z" fill="#000"/>
<path d="M27.8757 25.5199C27.8757 26.9626 26.8172 28.0211 25.3745 28.0211H24.124V29.7437H22.123V23.0089H25.3745C26.8172 23.0089 27.8757 24.0772 27.8757 25.5199ZM25.8449 25.5199C25.8449 24.9717 25.4607 24.5675 24.9604 24.5675H24.124V26.4724H24.9505C25.4607 26.4724 25.8449 26.0682 25.8449 25.5199Z" fill="#000"/>
<path d="M32.7898 28.9636H30.615L30.403 29.7421H28.3242L30.6233 23.0072H32.7882L35.0773 29.7421H33.0002L32.7882 28.9636H32.7898ZM32.4056 27.5109L31.7032 24.8938L31.0009 27.5109H32.4056Z" fill="#000"/>
<path d="M35.8789 26.3763C35.8789 24.2892 37.3995 22.7985 39.6124 22.7985C41.7094 22.7985 43.0759 23.8271 43.2399 25.5978H41.123C40.9889 24.9816 40.4489 24.5775 39.6223 24.5775C38.5838 24.5775 37.9676 25.2698 37.9676 26.3763C37.9676 27.4828 38.5838 28.1751 39.6223 28.1751C40.4489 28.1751 40.9889 27.771 41.123 27.1548H43.2399C43.0759 28.9255 41.7094 29.9541 39.6124 29.9541C37.3995 29.9541 35.8789 28.4633 35.8789 26.3746" fill="#000"/>
<path d="M46.1059 24.7315H44.375V23.0089H49.8494V24.7315H48.1168V29.7437H46.1059V24.7315Z" fill="#000"/>
</g>
<rect x="0.5" y="0.5" width="57" height="57" stroke="#000"/>
<defs>
<clipPath id="clip0_92_467">
<rect width="58" height="58" fill="000"/>
</clipPath>
</defs>
</svg>
